<svg width="42" height="41" viewBox="0 0 42 41" fill="none" xmlns="http://www.w3.org/2000/svg">
<path d="M37.1057 0.6875H4.70657C2.16092 0.6875 0.078125 2.70311 0.078125 5.16664V36.5206C0.078125 38.9864 2.16092 40.9998 4.70657 40.9998H20.9061V25.3228H16.2777V19.7798H20.9061V15.1887C20.9061 10.3423 23.711 6.93814 29.6215 6.93814L33.794 6.94262V12.7767H31.0239C28.7236 12.7767 27.8488 14.4474 27.8488 15.9972V19.7821H33.7917L32.4772 25.3228H27.8488V40.9998H37.1057C39.6513 40.9998 41.7341 38.9864 41.7341 36.5206V5.16664C41.7341 2.70311 39.6513 0.6875 37.1057 0.6875Z" fill="white"/>
</svg>
