<svg width="42" height="42" viewBox="0 0 42 42" fill="none" xmlns="http://www.w3.org/2000/svg">
<path d="M41.5218 12.295C41.4985 10.5459 41.1705 8.81426 40.5526 7.17745C40.0168 5.79681 39.1983 4.54294 38.1496 3.49596C37.1009 2.44898 35.8449 1.6319 34.462 1.09694C32.8435 0.490406 31.1337 0.162442 29.4053 0.127014C27.18 0.0277123 26.4745 0 20.8257 0C15.1769 0 14.4528 1.54854e-07 12.2437 0.127014C10.5161 0.162703 8.80713 0.490663 7.18941 1.09694C5.80625 1.63153 4.5501 2.44847 3.50133 3.4955C2.45255 4.54253 1.63425 5.7966 1.09877 7.17745C0.490006 8.79199 0.162208 10.4985 0.129539 12.2234C0.0300715 14.4473 0 15.1516 0 20.7911C0 26.4305 -1.72346e-08 27.151 0.129539 29.3587C0.164237 31.0861 0.490397 32.7904 1.09877 34.4093C1.63515 35.7897 2.45406 37.0433 3.50318 38.0899C4.55231 39.1364 5.80858 39.953 7.19172 40.4875C8.80502 41.1184 10.5143 41.4698 12.2461 41.5267C14.4737 41.626 15.1792 41.656 20.828 41.656C26.4768 41.656 27.2008 41.656 29.41 41.5267C31.1383 41.4927 32.8482 41.1655 34.4666 40.5591C35.8492 40.0235 37.1048 39.2062 38.1535 38.1593C39.2021 37.1124 40.0208 35.8588 40.5572 34.4785C41.1656 32.862 41.4918 31.1577 41.5265 29.428C41.6259 27.2064 41.656 26.5021 41.656 20.8603C41.6514 15.2209 41.6514 14.505 41.5218 12.295ZM20.8118 31.4556C14.9039 31.4556 10.1179 26.6776 10.1179 20.7795C10.1179 14.8814 14.9039 10.1034 20.8118 10.1034C23.648 10.1034 26.368 11.2282 28.3735 13.2304C30.379 15.2325 31.5057 17.948 31.5057 20.7795C31.5057 23.611 30.379 26.3265 28.3735 28.3287C26.368 30.3308 23.648 31.4556 20.8118 31.4556ZM31.9313 12.198C31.6038 12.1983 31.2794 12.1341 30.9767 12.0091C30.674 11.8841 30.399 11.7007 30.1674 11.4695C29.9358 11.2383 29.7521 10.9637 29.6269 10.6615C29.5017 10.3594 29.4374 10.0355 29.4377 9.7085C29.4377 9.38172 29.5022 9.05815 29.6274 8.75626C29.7527 8.45436 29.9363 8.18005 30.1677 7.94899C30.3992 7.71792 30.674 7.53464 30.9763 7.40959C31.2787 7.28454 31.6029 7.22017 31.9302 7.22017C32.2575 7.22017 32.5816 7.28454 32.884 7.40959C33.1864 7.53464 33.4612 7.71792 33.6926 7.94899C33.9241 8.18005 34.1077 8.45436 34.2329 8.75626C34.3582 9.05815 34.4226 9.38172 34.4226 9.7085C34.4226 11.0849 33.3077 12.198 31.9313 12.198Z" fill="white"/>
<path d="M20.8281 28.2187C24.9098 28.2187 28.2187 24.9098 28.2187 20.8281C28.2187 16.7464 24.9098 13.4375 20.8281 13.4375C16.7464 13.4375 13.4375 16.7464 13.4375 20.8281C13.4375 24.9098 16.7464 28.2187 20.8281 28.2187Z" fill="white"/>
</svg>
