<svg width="352" height="348" viewBox="0 0 352 348" fill="none" xmlns="http://www.w3.org/2000/svg">
<path fill-rule="evenodd" clip-rule="evenodd" d="M89.019 101.909C108.468 82.0502 123.188 56.3241 149.561 47.5747C178.204 38.0717 213.319 34.8484 237.681 52.5879C261.616 70.0174 260.086 105.249 267.973 133.801C274.025 155.708 280.955 176.942 278.274 199.527C275.521 222.721 267.203 244.642 252.647 262.929C236.771 282.874 217.867 281.013 192.418 282.079C164.864 277.821 152.426 279.49 129.914 268.067C107.652 256.771 78.7191 259.543 62.0645 240.951C43.4252 220.145 30.8144 190.846 36.1376 163.386C41.408 136.199 69.631 121.705 89.019 101.909Z" fill="#FFBC59"/>
<path d="M42.1132 159.004C44.1273 156.969 47.5986 158.082 48.0554 160.908L53.6258 195.367C54.0426 197.946 51.5901 200.056 49.1026 199.259L18.972 189.604C16.4844 188.807 15.715 185.664 17.5529 183.808L42.1132 159.004Z" stroke="#5F22E0" stroke-width="5"/>
<ellipse cx="298" cy="37.0059" rx="12" ry="11.5" fill="#FFBC59"/>
<mask id="mask0" style="mask-type:alpha" maskUnits="userSpaceOnUse" x="127" y="100" width="204" height="204">
<ellipse opacity="0.8" cx="228.595" cy="202.2" rx="74.7609" ry="74.5" transform="rotate(-60.6217 228.595 202.2)" fill="#C4C4C4"/>
</mask>
<g mask="url(#mask0)">
<rect x="73.4932" y="304.535" width="1.96739" height="169.912" transform="rotate(-60.6217 73.4932 304.535)" fill="#5F22E0" fill-opacity="0.3"/>
<rect x="76.708" y="298.819" width="1.96739" height="169.912" transform="rotate(-60.6217 76.708 298.819)" fill="#5F22E0" fill-opacity="0.3"/>
<rect x="79.9248" y="293.102" width="1.96739" height="169.912" transform="rotate(-60.6217 79.9248 293.102)" fill="#5F22E0" fill-opacity="0.3"/>
<rect x="83.1445" y="287.39" width="1.96739" height="169.912" transform="rotate(-60.6217 83.1445 287.39)" fill="#5F22E0" fill-opacity="0.3"/>
<rect x="86.3594" y="281.677" width="1.96739" height="169.912" transform="rotate(-60.6217 86.3594 281.677)" fill="#5F22E0" fill-opacity="0.3"/>
<rect x="89.5781" y="275.964" width="1.96739" height="169.912" transform="rotate(-60.6217 89.5781 275.964)" fill="#5F22E0" fill-opacity="0.3"/>
<rect x="92.7969" y="270.246" width="1.96739" height="169.912" transform="rotate(-60.6217 92.7969 270.246)" fill="#5F22E0" fill-opacity="0.3"/>
<rect x="96.0137" y="264.532" width="1.96739" height="169.912" transform="rotate(-60.6217 96.0137 264.532)" fill="#5F22E0" fill-opacity="0.3"/>
<rect x="99.2285" y="258.818" width="1.96739" height="169.912" transform="rotate(-60.6217 99.2285 258.818)" fill="#5F22E0" fill-opacity="0.3"/>
<rect x="102.445" y="253.102" width="1.96739" height="169.912" transform="rotate(-60.6217 102.445 253.102)" fill="#5F22E0" fill-opacity="0.3"/>
<rect x="105.664" y="247.385" width="1.96739" height="169.912" transform="rotate(-60.6217 105.664 247.385)" fill="#5F22E0" fill-opacity="0.3"/>
<rect x="108.881" y="241.673" width="1.96739" height="169.912" transform="rotate(-60.6217 108.881 241.673)" fill="#5F22E0" fill-opacity="0.3"/>
<rect x="112.098" y="235.961" width="1.96739" height="169.912" transform="rotate(-60.6217 112.098 235.961)" fill="#5F22E0" fill-opacity="0.3"/>
<rect x="115.315" y="230.247" width="1.96739" height="169.912" transform="rotate(-60.6217 115.315 230.247)" fill="#5F22E0" fill-opacity="0.3"/>
<rect x="118.534" y="224.528" width="1.96739" height="169.912" transform="rotate(-60.6217 118.534 224.528)" fill="#5F22E0" fill-opacity="0.3"/>
<rect x="121.752" y="218.814" width="1.96739" height="169.912" transform="rotate(-60.6217 121.752 218.814)" fill="#5F22E0" fill-opacity="0.3"/>
<rect x="124.965" y="213.101" width="1.96739" height="169.912" transform="rotate(-60.6217 124.965 213.101)" fill="#5F22E0" fill-opacity="0.3"/>
<rect x="128.184" y="207.388" width="1.96739" height="169.912" transform="rotate(-60.6217 128.184 207.388)" fill="#5F22E0" fill-opacity="0.3"/>
<rect x="131.402" y="201.671" width="1.96739" height="169.912" transform="rotate(-60.6217 131.402 201.671)" fill="#5F22E0" fill-opacity="0.3"/>
<rect x="134.617" y="195.954" width="1.96739" height="169.912" transform="rotate(-60.6217 134.617 195.954)" fill="#5F22E0" fill-opacity="0.3"/>
<rect x="137.834" y="190.244" width="1.96739" height="169.912" transform="rotate(-60.6217 137.834 190.244)" fill="#5F22E0" fill-opacity="0.3"/>
<rect x="141.053" y="184.529" width="1.96739" height="169.912" transform="rotate(-60.6217 141.053 184.529)" fill="#5F22E0" fill-opacity="0.3"/>
<rect x="144.269" y="178.812" width="1.96739" height="169.912" transform="rotate(-60.6217 144.269 178.812)" fill="#5F22E0" fill-opacity="0.3"/>
<rect x="147.487" y="173.095" width="1.96739" height="169.912" transform="rotate(-60.6217 147.487 173.095)" fill="#5F22E0" fill-opacity="0.3"/>
<rect x="150.703" y="167.384" width="1.96739" height="169.912" transform="rotate(-60.6217 150.703 167.384)" fill="#5F22E0" fill-opacity="0.3"/>
<rect x="153.922" y="161.668" width="1.96739" height="169.912" transform="rotate(-60.6217 153.922 161.668)" fill="#5F22E0" fill-opacity="0.3"/>
<rect x="157.141" y="155.956" width="1.96739" height="169.912" transform="rotate(-60.6217 157.141 155.956)" fill="#5F22E0" fill-opacity="0.3"/>
<rect x="160.354" y="150.24" width="1.96739" height="169.912" transform="rotate(-60.6217 160.354 150.24)" fill="#5F22E0" fill-opacity="0.3"/>
<rect x="163.57" y="144.524" width="1.96739" height="169.912" transform="rotate(-60.6217 163.57 144.524)" fill="#5F22E0" fill-opacity="0.3"/>
<rect x="166.791" y="138.81" width="1.96739" height="169.912" transform="rotate(-60.6217 166.791 138.81)" fill="#5F22E0" fill-opacity="0.3"/>
<rect x="170.008" y="133.097" width="1.96739" height="169.912" transform="rotate(-60.6217 170.008 133.097)" fill="#5F22E0" fill-opacity="0.3"/>
<rect x="173.225" y="127.38" width="1.96739" height="169.912" transform="rotate(-60.6217 173.225 127.38)" fill="#5F22E0" fill-opacity="0.3"/>
<rect x="176.44" y="121.668" width="1.96739" height="169.912" transform="rotate(-60.6217 176.44 121.668)" fill="#5F22E0" fill-opacity="0.3"/>
<rect x="179.658" y="115.951" width="1.96739" height="169.912" transform="rotate(-60.6217 179.658 115.951)" fill="#5F22E0" fill-opacity="0.3"/>
<rect x="182.877" y="110.237" width="1.96739" height="169.912" transform="rotate(-60.6217 182.877 110.237)" fill="#5F22E0" fill-opacity="0.3"/>
<rect x="186.092" y="104.522" width="1.96739" height="169.912" transform="rotate(-60.6217 186.092 104.522)" fill="#5F22E0" fill-opacity="0.3"/>
<rect x="189.311" y="98.8091" width="1.96739" height="169.912" transform="rotate(-60.6217 189.311 98.8091)" fill="#5F22E0" fill-opacity="0.3"/>
<rect x="192.526" y="93.0919" width="1.96739" height="169.912" transform="rotate(-60.6217 192.526 93.0919)" fill="#5F22E0" fill-opacity="0.3"/>
<rect x="195.743" y="87.3799" width="1.96739" height="169.912" transform="rotate(-60.6217 195.743 87.3799)" fill="#5F22E0" fill-opacity="0.3"/>
<rect x="198.963" y="81.6646" width="1.96739" height="169.912" transform="rotate(-60.6217 198.963 81.6646)" fill="#5F22E0" fill-opacity="0.3"/>
</g>
<g clip-path="url(#clip0)">
<path d="M241.924 240.551L233.587 248.243L240.213 237.102C234.993 227.616 226.456 219.418 226.456 219.418C226.456 219.418 208.745 236.423 208.745 249.79C208.745 263.157 216.675 267.824 226.456 267.824C236.238 267.824 244.167 263.157 244.167 249.79C244.167 246.815 243.288 243.659 241.924 240.551Z" fill="#F2F2F2"/>
<path d="M231.444 248.659V249.317C231.405 256.976 230.116 262.952 227.587 267.16C227.551 267.221 227.512 267.28 227.476 267.342L227.193 267.169L226.923 267C229.728 262.456 230.721 256.034 230.757 249.353C230.76 249.138 230.763 248.92 230.76 248.701C230.75 245.873 230.578 243.012 230.301 240.233C230.282 240.018 230.259 239.8 230.236 239.581C229.852 235.915 229.299 232.412 228.732 229.368C228.693 229.153 228.651 228.938 228.609 228.726C227.629 223.579 226.63 219.85 226.402 219.025C226.376 218.924 226.36 218.869 226.356 218.855L226.666 218.767L226.669 218.764L226.981 218.676C226.985 218.689 227.04 218.875 227.131 219.221C227.479 220.512 228.384 224.019 229.273 228.644C229.312 228.853 229.354 229.068 229.393 229.283C229.855 231.753 230.308 234.512 230.666 237.409C230.757 238.136 230.838 238.854 230.91 239.561C230.936 239.78 230.959 239.998 230.978 240.214C231.278 243.218 231.433 246.033 231.444 248.659Z" fill="white"/>
<path d="M229.272 228.644C229.054 228.674 228.832 228.703 228.608 228.726C227.998 228.789 227.385 228.82 226.772 228.82C224.159 228.824 221.579 228.24 219.221 227.111C219.084 227.284 218.948 227.457 218.808 227.633C221.288 228.846 224.012 229.476 226.772 229.473C227.427 229.473 228.081 229.438 228.731 229.368C228.953 229.345 229.174 229.316 229.392 229.284C231.192 229.025 232.943 228.494 234.584 227.708C234.444 227.529 234.307 227.353 234.174 227.18C232.62 227.907 230.969 228.401 229.272 228.644Z" fill="white"/>
<path d="M230.909 239.562C230.685 239.575 230.46 239.581 230.235 239.581C230.167 239.584 230.095 239.584 230.027 239.584C227.196 239.584 224.407 238.898 221.897 237.585C219.388 236.271 217.232 234.369 215.615 232.04C215.485 232.232 215.354 232.425 215.228 232.62C216.913 234.977 219.135 236.897 221.709 238.221C224.282 239.546 227.134 240.237 230.027 240.237C230.118 240.237 230.209 240.237 230.301 240.233C230.528 240.23 230.753 240.224 230.977 240.214C234.453 240.035 237.803 238.858 240.628 236.822C240.524 236.629 240.42 236.437 240.312 236.244C237.567 238.243 234.299 239.396 230.909 239.562Z" fill="white"/>
<path d="M231.443 248.659C231.215 248.678 230.987 248.691 230.759 248.701C230.515 248.711 230.271 248.717 230.027 248.717C226.223 248.713 222.522 247.474 219.479 245.185C216.436 242.897 214.215 239.682 213.148 236.022C213.001 236.287 212.855 236.548 212.715 236.812C213.917 240.463 216.237 243.641 219.345 245.896C222.453 248.15 226.191 249.366 230.027 249.37C230.271 249.37 230.515 249.366 230.756 249.353C230.987 249.347 231.215 249.334 231.443 249.317C236.045 248.957 240.338 246.857 243.453 243.443C243.385 243.202 243.307 242.963 243.229 242.722C240.22 246.161 235.992 248.291 231.443 248.659Z" fill="white"/>
<path d="M211.945 119.082L121.27 107.497C121.026 107.465 120.78 107.449 120.533 107.449C120.29 107.448 120.048 107.464 119.807 107.495C119.567 107.526 119.329 107.572 119.095 107.635C118.858 107.698 118.625 107.777 118.398 107.87C118.176 107.962 117.959 108.067 117.75 108.184C117.537 108.303 117.332 108.434 117.135 108.577C116.933 108.724 116.74 108.881 116.557 109.05C116.367 109.223 116.187 109.407 116.017 109.6C115.842 109.798 115.678 110.006 115.525 110.221C115.37 110.439 115.224 110.666 115.088 110.901C114.953 111.138 114.827 111.383 114.71 111.639C114.594 111.894 114.488 112.158 114.392 112.43C114.293 112.712 114.206 113 114.131 113.294C114.057 113.588 113.994 113.888 113.944 114.192C113.895 114.496 113.857 114.805 113.831 115.119C113.805 115.434 113.792 115.751 113.792 116.073C113.793 116.395 113.806 116.715 113.831 117.034C113.856 117.354 113.894 117.67 113.944 117.985C113.995 118.3 114.057 118.612 114.132 118.921C114.207 119.231 114.294 119.536 114.393 119.838C114.489 120.13 114.595 120.415 114.711 120.694C114.827 120.973 114.953 121.244 115.089 121.507C115.225 121.771 115.37 122.027 115.525 122.275C115.68 122.525 115.844 122.765 116.017 122.995C116.191 123.226 116.371 123.446 116.557 123.655C116.744 123.864 116.937 124.06 117.136 124.244C117.335 124.429 117.54 124.601 117.75 124.762C117.959 124.92 118.175 125.068 118.399 125.204C118.624 125.342 118.856 125.467 119.095 125.579C119.327 125.687 119.565 125.781 119.808 125.862C120.046 125.94 120.288 126.005 120.534 126.054C120.777 126.102 121.023 126.136 121.271 126.154L211.945 132.801C212.209 132.82 212.474 132.793 212.729 132.722C212.859 132.686 212.985 132.639 213.107 132.582C213.234 132.523 213.357 132.454 213.474 132.376C213.593 132.297 213.706 132.211 213.814 132.117C213.926 132.019 214.033 131.914 214.133 131.803C214.239 131.686 214.339 131.563 214.432 131.436C214.529 131.304 214.621 131.164 214.71 131.015C214.799 130.867 214.883 130.712 214.962 130.55C215.041 130.389 215.115 130.221 215.184 130.047C215.253 129.873 215.317 129.693 215.376 129.507C215.435 129.321 215.488 129.13 215.537 128.933C215.588 128.73 215.631 128.522 215.668 128.311C215.705 128.1 215.737 127.886 215.763 127.669C215.788 127.452 215.807 127.232 215.82 127.009C215.832 126.786 215.838 126.56 215.838 126.332C215.838 126.104 215.831 125.878 215.82 125.652C215.808 125.426 215.789 125.202 215.763 124.98C215.737 124.758 215.706 124.538 215.668 124.319C215.631 124.1 215.587 123.884 215.537 123.67C215.488 123.464 215.435 123.261 215.376 123.064C215.318 122.869 215.254 122.677 215.184 122.489C215.114 122.3 215.04 122.116 214.962 121.939C214.883 121.762 214.799 121.59 214.71 121.423C214.621 121.256 214.528 121.098 214.432 120.947C214.336 120.796 214.236 120.654 214.133 120.519C214.03 120.384 213.923 120.258 213.814 120.14C213.706 120.025 213.593 119.916 213.474 119.813C213.358 119.712 213.235 119.619 213.107 119.533C212.986 119.452 212.86 119.38 212.729 119.317C212.604 119.257 212.474 119.207 212.341 119.166C212.212 119.127 212.079 119.099 211.945 119.082" fill="#5F22E0"/>
<path d="M211.945 145.211L121.27 143.035C120.778 143.022 120.287 143.073 119.807 143.184C119.565 143.241 119.327 143.312 119.095 143.398C118.856 143.486 118.624 143.588 118.398 143.704C118.175 143.819 117.958 143.946 117.75 144.084C117.537 144.226 117.331 144.378 117.135 144.542C116.933 144.71 116.74 144.888 116.556 145.075C116.37 145.266 116.19 145.468 116.017 145.683C115.843 145.898 115.679 146.122 115.525 146.355C115.37 146.589 115.224 146.831 115.088 147.081C114.953 147.332 114.827 147.59 114.71 147.858C114.594 148.125 114.488 148.4 114.392 148.682C114.293 148.975 114.206 149.272 114.131 149.574C114.057 149.875 113.994 150.181 113.944 150.491C113.895 150.8 113.857 151.114 113.831 151.43C113.805 151.747 113.792 152.066 113.792 152.388C113.793 152.71 113.806 153.029 113.831 153.345C113.856 153.662 113.894 153.975 113.944 154.284C113.995 154.592 114.057 154.896 114.132 155.198C114.207 155.499 114.294 155.796 114.393 156.087C114.489 156.371 114.595 156.646 114.711 156.912C114.827 157.178 114.953 157.437 115.089 157.686C115.225 157.936 115.37 158.177 115.525 158.409C115.68 158.641 115.844 158.863 116.017 159.077C116.191 159.29 116.371 159.492 116.557 159.681C116.741 159.867 116.934 160.044 117.136 160.211C117.332 160.373 117.537 160.524 117.75 160.664C117.959 160.801 118.176 160.927 118.399 161.04C118.625 161.154 118.857 161.255 119.095 161.342C119.328 161.426 119.566 161.496 119.808 161.551C120.047 161.606 120.29 161.645 120.534 161.669C120.779 161.692 121.025 161.7 121.271 161.693L211.945 158.928C212.078 158.924 212.211 158.909 212.341 158.882C212.473 158.855 212.603 158.818 212.729 158.77C212.859 158.72 212.986 158.66 213.107 158.591C213.235 158.518 213.358 158.436 213.474 158.346C213.593 158.255 213.706 158.157 213.814 158.052C213.926 157.942 214.033 157.826 214.133 157.705C214.236 157.581 214.336 157.448 214.432 157.306C214.529 157.164 214.621 157.014 214.71 156.857C214.799 156.699 214.883 156.535 214.962 156.366C215.041 156.196 215.115 156.021 215.184 155.84C215.253 155.656 215.317 155.468 215.376 155.278C215.435 155.087 215.488 154.891 215.537 154.689C215.588 154.482 215.631 154.271 215.668 154.056C215.705 153.841 215.737 153.624 215.763 153.404C215.788 153.183 215.807 152.961 215.82 152.737C215.832 152.512 215.838 152.286 215.838 152.058C215.838 151.832 215.831 151.607 215.82 151.381C215.808 151.156 215.789 150.933 215.763 150.714C215.737 150.493 215.706 150.276 215.668 150.062C215.631 149.849 215.587 149.637 215.537 149.428C215.488 149.225 215.434 149.029 215.376 148.837C215.317 148.645 215.253 148.459 215.184 148.279C215.115 148.098 215.041 147.923 214.962 147.754C214.883 147.584 214.799 147.421 214.71 147.264C214.621 147.107 214.529 146.958 214.433 146.816C214.336 146.675 214.237 146.543 214.134 146.42C214.033 146.299 213.927 146.184 213.814 146.074C213.707 145.97 213.593 145.873 213.475 145.782C213.358 145.693 213.235 145.612 213.108 145.54C212.986 145.472 212.86 145.413 212.729 145.364C212.603 145.317 212.473 145.28 212.341 145.254C212.21 145.229 212.078 145.214 211.945 145.211Z" fill="#E4E4E4"/>
<path d="M211.945 169.706L121.27 176.352C121.022 176.37 120.776 176.404 120.533 176.452C120.288 176.501 120.045 176.566 119.807 176.644C119.564 176.725 119.326 176.819 119.095 176.927C118.856 177.039 118.623 177.164 118.398 177.302C118.174 177.438 117.958 177.586 117.75 177.744C117.538 177.906 117.334 178.078 117.135 178.262C116.936 178.446 116.743 178.642 116.557 178.851C116.37 179.059 116.19 179.279 116.017 179.511C115.843 179.743 115.679 179.983 115.525 180.231C115.37 180.48 115.224 180.736 115.088 180.999C114.953 181.263 114.827 181.534 114.71 181.813C114.594 182.091 114.488 182.377 114.392 182.669C114.293 182.97 114.206 183.276 114.131 183.585C114.057 183.895 113.994 184.207 113.944 184.521C113.895 184.836 113.857 185.153 113.831 185.472C113.805 185.791 113.792 186.111 113.792 186.433C113.793 186.754 113.806 187.072 113.831 187.386C113.856 187.701 113.894 188.01 113.944 188.314C113.995 188.62 114.057 188.919 114.132 189.213C114.207 189.506 114.294 189.794 114.393 190.076C114.489 190.349 114.595 190.613 114.711 190.868C114.827 191.123 114.953 191.369 115.089 191.605C115.225 191.842 115.37 192.069 115.525 192.286C115.679 192.501 115.843 192.708 116.017 192.907C116.187 193.1 116.368 193.283 116.557 193.457C116.741 193.625 116.934 193.783 117.136 193.93C117.333 194.073 117.538 194.204 117.75 194.322C117.96 194.44 118.176 194.545 118.399 194.637C118.626 194.73 118.858 194.809 119.095 194.872C119.33 194.934 119.568 194.981 119.808 195.012C120.049 195.043 120.291 195.058 120.534 195.058C120.78 195.057 121.026 195.041 121.271 195.01L211.945 183.428C212.079 183.41 212.212 183.382 212.341 183.343C212.474 183.303 212.604 183.253 212.729 183.192C212.86 183.129 212.986 183.057 213.107 182.976C213.235 182.891 213.358 182.797 213.474 182.696C213.593 182.593 213.706 182.484 213.814 182.369C213.922 182.251 214.029 182.125 214.133 181.99C214.236 181.856 214.336 181.713 214.432 181.562C214.529 181.412 214.621 181.253 214.71 181.087C214.799 180.921 214.883 180.749 214.962 180.571C215.041 180.392 215.115 180.209 215.184 180.021C215.253 179.832 215.317 179.639 215.376 179.442C215.435 179.244 215.488 179.042 215.537 178.836C215.588 178.621 215.631 178.405 215.668 178.187C215.705 177.968 215.737 177.748 215.763 177.525C215.788 177.303 215.807 177.079 215.82 176.854C215.832 176.628 215.838 176.401 215.838 176.173C215.837 175.946 215.831 175.722 215.819 175.499C215.807 175.276 215.788 175.055 215.762 174.838C215.737 174.62 215.706 174.406 215.668 174.195C215.631 173.984 215.587 173.776 215.537 173.573C215.488 173.376 215.435 173.184 215.376 172.999C215.318 172.813 215.254 172.633 215.184 172.459C215.115 172.285 215.041 172.117 214.962 171.956C214.883 171.796 214.798 171.641 214.709 171.492C214.62 171.342 214.527 171.202 214.431 171.072C214.338 170.944 214.238 170.821 214.132 170.704C214.032 170.593 213.925 170.488 213.813 170.39C213.705 170.296 213.592 170.21 213.473 170.131C213.356 170.053 213.234 169.984 213.106 169.925C212.984 169.868 212.858 169.821 212.728 169.785C212.474 169.714 212.208 169.687 211.945 169.706" fill="#E4E4E4"/>
<path d="M162.522 170.924C163.096 171.881 164.001 172.594 165.065 172.926C166.129 173.259 167.278 173.188 168.293 172.728C169.308 172.267 170.12 171.449 170.573 170.429C171.026 169.409 171.09 168.257 170.752 167.193L188.326 131.011L179.914 125.901L164.737 164.333C164.679 164.356 164.622 164.38 164.566 164.404C164.509 164.429 164.453 164.455 164.397 164.482C164.342 164.509 164.286 164.537 164.231 164.567C164.176 164.597 164.122 164.628 164.067 164.661C163.034 165.286 162.29 166.297 162 167.472C161.711 168.646 161.898 169.888 162.522 170.924L162.522 170.924Z" fill="#9E616A"/>
<path d="M184.971 144.963L172.486 141.756C172.486 141.756 172.894 140.833 173.556 139.303C174.219 137.773 175.145 135.64 176.186 133.218C177.227 130.796 178.382 128.09 179.511 125.415C180.639 122.74 181.736 120.097 182.661 117.806C183.585 115.515 184.635 114.143 185.69 113.374C186.563 112.709 187.663 112.416 188.751 112.558C189.597 112.685 190.405 112.993 191.12 113.462C191.458 113.673 191.777 113.915 192.071 114.185L194.965 119.461L184.971 144.963Z" fill="#CCCCCC"/>
<path d="M85.0578 142.098C84.7555 142.12 84.4547 142.159 84.1567 142.215C83.8568 142.272 83.5603 142.345 83.2685 142.434C82.9723 142.524 82.6811 142.631 82.3964 142.753C82.1049 142.878 81.8203 143.019 81.5434 143.174C81.2726 143.326 81.0079 143.492 80.7493 143.671C80.4907 143.851 80.2395 144.043 79.9958 144.249C79.7524 144.455 79.5161 144.674 79.2871 144.907C79.058 145.139 78.8373 145.385 78.625 145.643C78.4126 145.901 78.2113 146.168 78.0212 146.445C77.831 146.722 77.6526 147.007 77.486 147.3C77.3209 147.594 77.1665 147.896 77.0229 148.206C76.8792 148.516 76.7486 148.833 76.6311 149.157C76.5086 149.494 76.4014 149.834 76.3094 150.177C76.2175 150.52 76.1408 150.867 76.0794 151.216C76.0178 151.565 75.9716 151.917 75.9407 152.271C75.9099 152.624 75.8945 152.98 75.8945 153.337C75.8945 153.693 75.9099 154.046 75.9407 154.393C75.9716 154.741 76.0178 155.083 76.0794 155.42C76.1408 155.757 76.2175 156.088 76.3094 156.412C76.4014 156.737 76.5082 157.055 76.6299 157.367C76.7485 157.668 76.8791 157.959 77.0217 158.24C77.1627 158.518 77.3175 158.789 77.4856 159.052C77.6511 159.31 77.8297 159.559 78.0208 159.798C78.2101 160.036 78.4117 160.263 78.6249 160.48C78.8346 160.693 79.0557 160.894 79.2871 161.083C79.5137 161.268 79.7504 161.44 79.9962 161.598C80.4813 161.911 81.0006 162.167 81.5438 162.362C82.1007 162.561 82.6795 162.693 83.2677 162.754C83.5628 162.785 83.8593 162.798 84.1559 162.794C84.4573 162.789 84.7581 162.768 85.0571 162.73C85.3587 162.691 85.6579 162.636 85.9535 162.564C86.2499 162.493 86.5422 162.405 86.8291 162.301C87.1193 162.196 87.4038 162.076 87.6813 161.941C87.9641 161.803 88.2397 161.652 88.5072 161.486C88.7676 161.323 89.0212 161.149 89.2681 160.962C89.5149 160.776 89.754 160.577 89.9855 160.366C90.2169 160.155 90.4403 159.933 90.6558 159.699C90.8713 159.465 91.0784 159.219 91.2772 158.962C91.4773 158.706 91.6656 158.441 91.8422 158.169C92.0187 157.897 92.1841 157.617 92.3382 157.33C92.4923 157.044 92.6349 156.751 92.766 156.451C92.8972 156.151 93.0167 155.844 93.1245 155.532C93.2363 155.208 93.3341 154.882 93.418 154.553C93.5018 154.224 93.5718 153.893 93.628 153.559C93.6839 153.225 93.7259 152.889 93.7542 152.552C93.7824 152.214 93.7965 151.875 93.7965 151.535C93.7962 151.195 93.7821 150.859 93.7542 150.527C93.7262 150.195 93.6842 149.868 93.628 149.545C93.5721 149.223 93.5021 148.906 93.418 148.593C93.3339 148.281 93.2361 147.974 93.1245 147.674C93.0161 147.382 92.8966 147.1 92.766 146.827C92.6336 146.554 92.4904 146.289 92.3362 146.033C92.0312 145.526 91.6764 145.051 91.2772 144.614C91.0813 144.399 90.8744 144.195 90.6574 144.002C90.4437 143.812 90.2199 143.635 89.987 143.469C89.7564 143.305 89.5169 143.155 89.2697 143.017C89.0226 142.88 88.768 142.757 88.5072 142.648C87.9687 142.423 87.4056 142.263 86.8295 142.171C86.5396 142.125 86.2472 142.096 85.9539 142.084C85.655 142.071 85.3557 142.076 85.0575 142.098" fill="#E4E4E4"/>
<path d="M85.0578 179.006C84.7555 179.028 84.4547 179.067 84.1567 179.124C83.8568 179.18 83.5603 179.253 83.2685 179.342C82.9723 179.433 82.6811 179.539 82.3964 179.661C82.1049 179.787 81.8203 179.927 81.5434 180.082C81.2726 180.234 81.0079 180.4 80.7493 180.579C80.4907 180.759 80.2395 180.951 79.9958 181.157C79.7524 181.363 79.5161 181.582 79.2871 181.815C79.058 182.047 78.8373 182.293 78.625 182.551C78.4126 182.809 78.2113 183.076 78.0212 183.353C77.831 183.63 77.6526 183.915 77.486 184.208C77.3209 184.502 77.1665 184.804 77.0229 185.114C76.8792 185.424 76.7486 185.741 76.6311 186.065C76.5086 186.402 76.4014 186.742 76.3094 187.085C76.2175 187.428 76.1408 187.775 76.0794 188.124C76.0178 188.473 75.9716 188.825 75.9407 189.179C75.9099 189.533 75.8945 189.888 75.8945 190.245C75.8945 190.601 75.9099 190.954 75.9407 191.301C75.9716 191.649 76.0178 191.991 76.0794 192.328C76.1408 192.665 76.2175 192.996 76.3094 193.321C76.4014 193.645 76.5082 193.964 76.6299 194.275C76.7485 194.576 76.8791 194.867 77.0217 195.148C77.1627 195.426 77.3175 195.697 77.4856 195.96C77.6511 196.218 77.8297 196.467 78.0208 196.706C78.2101 196.944 78.4117 197.171 78.6249 197.388C78.8346 197.601 79.0557 197.802 79.2871 197.991C79.5137 198.176 79.7504 198.348 79.9962 198.507C80.4813 198.819 81.0006 199.075 81.5438 199.27C82.1007 199.469 82.6795 199.601 83.2677 199.662C83.5628 199.693 83.8593 199.706 84.1559 199.702C84.4573 199.697 84.7581 199.676 85.0571 199.638C85.3587 199.599 85.6579 199.544 85.9535 199.472C86.2499 199.401 86.5422 199.313 86.8291 199.209C87.1193 199.104 87.4038 198.984 87.6813 198.849C87.9641 198.711 88.2397 198.56 88.5072 198.394C88.7676 198.231 89.0212 198.057 89.2681 197.87C89.5149 197.684 89.754 197.485 89.9855 197.274C90.2169 197.063 90.4403 196.841 90.6558 196.607C90.8713 196.373 91.0784 196.127 91.2772 195.87C91.4773 195.614 91.6656 195.349 91.8422 195.077C92.0187 194.805 92.1841 194.525 92.3382 194.239C92.4923 193.952 92.6349 193.659 92.766 193.359C92.8972 193.059 93.0167 192.752 93.1245 192.44C93.2363 192.116 93.3341 191.79 93.418 191.461C93.5018 191.132 93.5718 190.801 93.628 190.467C93.6839 190.133 93.7259 189.797 93.7542 189.46C93.7824 189.122 93.7965 188.784 93.7965 188.443C93.7962 188.103 93.7821 187.767 93.7542 187.435C93.7262 187.103 93.6842 186.776 93.628 186.453C93.5721 186.131 93.5021 185.814 93.418 185.502C93.3339 185.189 93.2361 184.882 93.1245 184.582C93.0161 184.291 92.8966 184.008 92.766 183.735C92.6336 183.462 92.4904 183.197 92.3362 182.941C92.0312 182.434 91.6764 181.959 91.2772 181.522C91.0813 181.308 90.8744 181.103 90.6574 180.91C90.4437 180.72 90.2199 180.543 89.987 180.377C89.7564 180.213 89.5169 180.063 89.2697 179.925C89.0226 179.788 88.768 179.665 88.5072 179.556C87.9687 179.331 87.4056 179.171 86.8295 179.079C86.5396 179.033 86.2472 179.004 85.9539 178.992C85.655 178.979 85.3557 178.984 85.0575 179.007" fill="#E4E4E4"/>
<path d="M85.0596 102.115C84.7589 102.107 84.458 102.117 84.1584 102.144C83.8601 102.171 83.5635 102.215 83.2702 102.276C82.9753 102.338 82.6841 102.416 82.3981 102.512C82.1077 102.608 81.8229 102.72 81.5451 102.849C81.2732 102.974 81.0081 103.114 80.751 103.268C80.4913 103.423 80.2398 103.591 79.9976 103.773C79.7514 103.957 79.5147 104.153 79.2884 104.362C79.0583 104.573 78.8372 104.798 78.6251 105.035C78.4127 105.272 78.2115 105.52 78.0213 105.779C77.8312 106.037 77.6528 106.305 77.4861 106.582C77.3203 106.863 77.1655 107.151 77.0219 107.445C76.8782 107.74 76.7476 108.045 76.6301 108.359C76.5083 108.682 76.4015 109.012 76.3096 109.346C76.2176 109.681 76.141 110.02 76.0796 110.363C76.0179 110.707 75.9717 111.054 75.9409 111.404C75.9101 111.754 75.8947 112.107 75.8947 112.464C75.8947 112.82 75.9101 113.174 75.9409 113.524C75.9717 113.875 76.0179 114.221 76.0796 114.564C76.141 114.907 76.2176 115.246 76.3096 115.579C76.4015 115.913 76.5083 116.242 76.6301 116.565C76.7486 116.877 76.8792 117.181 77.0219 117.476C77.1655 117.77 77.3207 118.055 77.4873 118.331C77.6539 118.608 77.8323 118.874 78.0225 119.131C78.2124 119.389 78.4136 119.635 78.6263 119.871C78.8389 120.106 79.0596 120.329 79.2884 120.538C79.5135 120.746 79.749 120.942 79.994 121.125C80.2363 121.305 80.4878 121.471 80.7474 121.625C81.0046 121.777 81.2697 121.915 81.5416 122.039C81.8195 122.165 82.1042 122.276 82.3945 122.37C82.9658 122.556 83.5565 122.674 84.1549 122.724C84.7541 122.774 85.357 122.755 85.952 122.669C86.2471 122.626 86.5394 122.567 86.8277 122.491C87.1167 122.415 87.4012 122.322 87.6799 122.214C87.9618 122.104 88.2375 121.979 88.5058 121.84C88.7674 121.703 89.0219 121.554 89.2682 121.392C89.516 121.228 89.7554 121.052 89.9856 120.865C90.217 120.677 90.4405 120.476 90.656 120.263C90.8714 120.05 91.0786 119.824 91.2773 119.587C91.4774 119.349 91.6657 119.103 91.8423 118.848C92.0189 118.593 92.1842 118.329 92.3383 118.058C92.493 117.786 92.6356 117.507 92.7662 117.219C92.8968 116.932 93.0163 116.638 93.1247 116.337C93.2365 116.025 93.3343 115.708 93.4181 115.387C93.502 115.066 93.572 114.741 93.6281 114.413C93.684 114.084 93.7261 113.751 93.7543 113.417C93.7825 113.082 93.7966 112.744 93.7966 112.404C93.7963 112.064 93.7822 111.727 93.7543 111.392C93.7263 111.057 93.6843 110.726 93.6281 110.398C93.5722 110.07 93.5022 109.746 93.4181 109.425C93.334 109.104 93.2362 108.788 93.1247 108.476C93.0163 108.175 92.8968 107.881 92.7662 107.595C92.6356 107.309 92.4923 107.03 92.3364 106.758C92.1823 106.489 92.0169 106.227 91.8403 105.973C91.6638 105.719 91.4761 105.474 91.2773 105.238C91.0799 105.003 90.8733 104.779 90.6575 104.567C90.4418 104.355 90.2183 104.156 89.9872 103.969C89.7571 103.783 89.5178 103.608 89.2702 103.446C89.0238 103.285 88.7693 103.137 88.5077 103.003C88.2394 102.865 87.9637 102.741 87.6818 102.634C87.4031 102.527 87.1186 102.436 86.8297 102.362C86.5413 102.288 86.2489 102.23 85.954 102.189C85.6568 102.148 85.3575 102.124 85.0576 102.117L85.0596 102.115ZM85.0576 101.135C86.3737 101.171 87.6646 101.505 88.8329 102.114C89.994 102.722 91.0231 103.555 91.8607 104.565C92.7363 105.617 93.4182 106.817 93.8746 108.109C94.8519 110.888 94.8519 113.919 93.8746 116.699C93.4177 117.994 92.7359 119.198 91.8607 120.256C91.023 121.27 89.994 122.109 88.8325 122.725C87.6657 123.341 86.3751 123.684 85.0572 123.729C83.7312 123.772 82.413 123.509 81.205 122.959C79.9856 122.4 78.8946 121.593 78.0006 120.591C77.0511 119.53 76.3081 118.301 75.8096 116.966C74.7301 114.06 74.7301 110.862 75.8096 107.956C76.3085 106.617 77.0515 105.383 78.0006 104.316C78.8943 103.308 79.985 102.495 81.205 101.927C82.4121 101.37 83.7309 101.098 85.0595 101.133L85.0576 101.135Z" fill="#5F22E0"/>
<path d="M85.0588 115.209L81.9727 108.765L82.7053 108.287L85.2473 113.58L95.9206 101.008L96.5667 101.698L85.0588 115.209Z" fill="#5F22E0"/>
<path d="M197.377 242.414L189.737 242.385L192.201 262.391L197.377 262.417V242.414Z" fill="#9E616A"/>
<path d="M198.697 267.451L182.016 267.362V267.151C182.015 266.722 182.057 266.294 182.14 265.873C182.304 265.043 182.631 264.253 183.102 263.551C183.58 262.839 184.193 262.227 184.906 261.752C185.61 261.283 186.399 260.959 187.228 260.798C187.649 260.717 188.076 260.677 188.505 260.68L198.697 260.73V267.451Z" fill="#2F2E41"/>
<path d="M172.914 242.32L165.296 242.29L167.752 262.269L172.914 262.295V242.32Z" fill="#9E616A"/>
<path d="M174.231 267.321L157.593 267.233V267.022C157.593 266.594 157.634 266.166 157.717 265.746C157.881 264.917 158.207 264.129 158.676 263.427C159.153 262.715 159.765 262.104 160.476 261.629C161.178 261.161 161.965 260.838 162.793 260.678C163.212 260.597 163.638 260.557 164.066 260.56L174.231 260.61V267.321Z" fill="#2F2E41"/>
<path d="M172.591 160.549L159.78 208.46L164.469 254.386L174.852 254.673L172.591 213.204L185.544 192.51L188.353 254.955L197.771 254.288L203.01 200.597C204.789 196.405 206.094 192.026 206.9 187.543C207.534 184.023 207.842 180.453 207.821 176.877C207.81 174.469 207.625 172.065 207.268 169.685C207.141 168.797 206.968 167.917 206.751 167.048L202.931 163.167L172.591 160.549Z" fill="#2F2E41"/>
<path d="M189.565 168.563C187.41 168.563 185.389 168.493 183.556 168.357C181.683 168.228 179.821 167.982 177.979 167.621C176.411 167.327 174.883 166.845 173.43 166.186C172.26 165.679 171.243 164.875 170.48 163.852L170.393 163.725L173.894 140.888L177.67 115.211C177.919 113.511 178.782 111.963 180.096 110.86C181.41 109.758 183.082 109.178 184.795 109.231L196.621 109.594C197.507 109.621 198.38 109.827 199.186 110.198C199.992 110.569 200.715 111.099 201.313 111.756C201.911 112.413 202.372 113.183 202.667 114.022C202.963 114.86 203.087 115.749 203.033 116.637L201.481 142.173L207.207 167.362L206.801 167.419C206.638 167.441 206.01 167.524 205.025 167.635C203.739 167.78 202.425 167.91 201.12 168.023C199.275 168.182 197.469 168.308 195.753 168.396C193.577 168.507 191.491 168.561 189.565 168.563Z" fill="#CCCCCC"/>
<path d="M183.002 104.693C182.999 104.693 182.996 104.693 182.993 104.693C182.744 104.693 182.499 104.644 182.27 104.548C182.04 104.453 181.832 104.314 181.657 104.138C181.482 103.962 181.343 103.753 181.248 103.523C181.153 103.293 181.104 103.047 181.104 102.798V92.2326C181.103 90.3396 181.481 88.4656 182.216 86.7219C183.656 83.3192 186.351 80.6047 189.738 79.144C191.881 78.223 194.218 77.8489 196.541 78.0552C198.863 78.2615 201.098 79.0418 203.046 80.3262C204.993 81.6106 206.593 83.359 207.7 85.4148C208.808 87.4706 209.39 89.7697 209.394 92.1062V102.688C209.394 102.943 209.343 103.195 209.244 103.429C209.05 103.887 208.687 104.252 208.231 104.447C207.997 104.547 207.745 104.599 207.491 104.6L183 104.693H183.002Z" fill="#2F2E41"/>
<path d="M201.635 88.609C202.621 90.4146 203.052 92.4728 202.872 94.5234C202.692 96.5741 201.91 98.5253 200.624 100.131C199.338 101.736 197.606 102.923 195.647 103.543C193.688 104.163 191.59 104.186 189.617 103.612C188.311 103.236 187.093 102.603 186.032 101.752C184.971 100.9 184.09 99.8465 183.439 98.6511C182.455 96.8462 182.026 94.7898 182.206 92.741C182.387 90.6922 183.168 88.7428 184.453 87.1386C185.737 85.5345 187.467 84.3473 189.424 83.7269C191.38 83.1064 193.477 83.0805 195.448 83.6523C196.755 84.0271 197.975 84.6582 199.038 85.5091C200.1 86.3601 200.982 87.4138 201.635 88.6094V88.609Z" fill="#9E616A"/>
<path d="M177.761 93.0926C177.759 91.5954 178.058 90.1133 178.64 88.7343C179.778 86.0436 181.909 83.8972 184.589 82.7426C185.963 82.1524 187.442 81.8453 188.937 81.8395L191.048 81.8289C191.071 81.8288 191.095 81.8287 191.119 81.8287C192.58 81.8296 194.027 82.119 195.376 82.6802C196.726 83.2414 197.952 84.0635 198.985 85.0996C200.017 86.1357 200.836 87.3655 201.395 88.7187C201.953 90.072 202.24 91.5222 202.239 92.9865V93.1982L197.775 93.2162L196.253 88.9545L195.948 93.2245L193.643 93.2347L192.875 91.0846L192.721 93.2374L177.763 93.3046L177.761 93.0926Z" fill="#2F2E41"/>
<path d="M159.789 115.32C159.102 115.488 158.46 115.804 157.906 116.245C157.473 116.588 157.103 117.004 156.813 117.473C156.239 118.403 155.986 119.496 156.093 120.584C156.147 121.134 156.296 121.67 156.533 122.168C156.825 122.79 157.245 123.342 157.766 123.789C158.287 124.235 158.896 124.566 159.553 124.76C160.211 124.953 160.902 125.004 161.581 124.91C162.26 124.816 162.911 124.579 163.492 124.214C163.535 124.186 163.577 124.158 163.619 124.13C163.661 124.101 163.702 124.072 163.743 124.042C163.784 124.013 163.824 123.982 163.863 123.952C163.902 123.921 163.941 123.89 163.98 123.858L188.613 132.644C189.371 132.915 190.196 132.931 190.964 132.69C191.732 132.45 192.401 131.966 192.871 131.312L198.711 123.208L191.65 118.444L187.945 122.662L165.401 118.168C165.377 118.109 165.351 118.051 165.325 117.993C165.299 117.935 165.271 117.877 165.243 117.82C165.213 117.763 165.183 117.706 165.153 117.649C165.122 117.592 165.089 117.536 165.055 117.48C164.517 116.609 163.718 115.931 162.772 115.543C161.826 115.155 160.782 115.077 159.789 115.32Z" fill="#9E616A"/>
<path d="M188.343 120.001C189.08 119.08 190.11 117.883 191.157 116.696C192.204 115.51 193.266 114.333 194.067 113.453C194.868 112.573 195.408 111.99 195.408 111.99C196.147 110.87 197.251 110.04 198.532 109.642C199.813 109.245 201.191 109.304 202.433 109.809C203.676 110.315 204.705 111.236 205.346 112.416C205.988 113.595 206.202 114.961 205.953 116.282C205.81 117.042 205.516 117.765 205.087 118.408C205.087 118.408 204.283 119.462 203.07 121.035C201.857 122.608 200.234 124.702 198.597 126.784C196.96 128.866 195.307 130.937 194.032 132.465C192.757 133.994 191.86 134.982 191.734 134.897L187.288 121.653C187.162 121.568 187.606 120.923 188.343 120.001Z" fill="#CCCCCC"/>
<path d="M190.981 104.36C190.911 104.701 190.939 105.056 191.06 105.383C191.12 105.55 191.204 105.708 191.309 105.852C191.398 105.975 191.502 106.086 191.618 106.184C191.96 106.475 192.395 106.633 192.843 106.631C192.871 106.631 192.899 106.63 192.927 106.629C192.955 106.627 192.983 106.625 193.011 106.623C193.039 106.62 193.067 106.617 193.095 106.613C193.123 106.609 193.151 106.605 193.179 106.6L194.764 106.311L196.946 101.639V105.919L204.15 104.619V86.4575L192.073 86.5156L192.372 86.8631C193.363 88.0291 194.013 89.4464 194.252 90.9591C194.487 92.4913 194.457 94.0524 194.165 95.5746C193.882 97.1149 193.451 98.6243 192.88 100.082C192.38 101.374 191.806 102.635 191.162 103.86C191.079 104.018 191.018 104.186 190.981 104.36Z" fill="#2F2E41"/>
<path d="M107.334 268H256.608C256.712 268 256.812 267.958 256.885 267.885C256.959 267.811 257 267.711 257 267.607C257 267.503 256.959 267.403 256.885 267.33C256.812 267.256 256.712 267.215 256.608 267.215H107.334C107.23 267.215 107.131 267.256 107.057 267.33C106.984 267.403 106.942 267.503 106.942 267.607C106.942 267.711 106.984 267.811 107.057 267.885C107.131 267.958 107.23 268 107.334 268Z" fill="#CACACA"/>
</g>
<defs>
<clipPath id="clip0">
<rect width="182" height="190" fill="white" transform="translate(75 78)"/>
</clipPath>
</defs>
</svg>