<svg width="42" height="41" viewBox="0 0 42 41" fill="none" xmlns="http://www.w3.org/2000/svg">
<path fill-rule="evenodd" clip-rule="evenodd" d="M0.937501 3.58197C0.937501 2.6773 1.29688 1.80968 1.93658 1.16998C2.57628 0.530282 3.4439 0.170903 4.34857 0.170903H38.3516C38.7999 0.170171 39.244 0.257874 39.6584 0.428991C40.0728 0.600108 40.4493 0.851279 40.7665 1.16812C41.0837 1.48497 41.3353 1.86126 41.5069 2.27546C41.6784 2.68967 41.7666 3.13364 41.7664 3.58197V37.585C41.7669 38.0334 41.6789 38.4775 41.5076 38.8919C41.3363 39.3063 41.085 39.6829 40.768 40C40.451 40.3172 40.0746 40.5688 39.6602 40.7403C39.2459 40.9119 38.8019 41 38.3535 40.9998H4.34857C3.90046 40.9998 3.45675 40.9115 3.04278 40.74C2.62881 40.5684 2.25269 40.317 1.93592 40C1.61915 39.6831 1.36793 39.3069 1.19662 38.8928C1.02531 38.4787 0.937257 38.035 0.937501 37.5869V3.58197ZM17.0983 15.7378H22.6269V18.5142C23.4249 16.9182 25.4664 15.4817 28.5341 15.4817C34.4153 15.4817 35.8091 18.6608 35.8091 24.4938V35.2986H29.8573V25.8226C29.8573 22.5006 29.0593 20.6262 27.0327 20.6262C24.2211 20.6262 23.0519 22.6472 23.0519 25.8226V35.2986H17.0983V15.7378ZM6.89109 35.0443H12.8447V15.4817H6.89109V35.0425V35.0443ZM13.6965 9.10129C13.7078 9.61105 13.617 10.1179 13.4297 10.5921C13.2424 11.0664 12.9623 11.4984 12.6057 11.8629C12.2492 12.2274 11.8234 12.5169 11.3534 12.7147C10.8834 12.9124 10.3787 13.0142 9.86882 13.0142C9.35894 13.0142 8.8542 12.9124 8.38422 12.7147C7.91423 12.5169 7.48847 12.2274 7.13193 11.8629C6.77538 11.4984 6.49523 11.0664 6.30791 10.5921C6.12059 10.1179 6.02989 9.61105 6.04111 9.10129C6.06314 8.10071 6.4761 7.14854 7.19153 6.44869C7.90696 5.74884 8.868 5.35695 9.86882 5.35695C10.8696 5.35695 11.8307 5.74884 12.5461 6.44869C13.2615 7.14854 13.6745 8.10071 13.6965 9.10129Z" fill="white"/>
</svg>
