<svg width="43" height="41" viewBox="0 0 43 41" fill="none" xmlns="http://www.w3.org/2000/svg">
<path d="M38.1616 0.6875H5.43189C2.96787 0.6875 0.96875 2.62213 0.96875 5.00667V36.6806C0.96875 39.0651 2.96787 40.9998 5.43189 40.9998H38.1616C40.6256 40.9998 42.6247 39.0651 42.6247 36.6806V5.00667C42.6247 2.62213 40.6256 0.6875 38.1616 0.6875ZM33.6148 14.9768C33.6334 15.2287 33.6334 15.4897 33.6334 15.7416C33.6334 23.5431 27.4966 32.5324 16.2829 32.5324C12.824 32.5324 9.61609 31.5606 6.91961 29.8869C7.41241 29.9409 7.88662 29.9589 8.38872 29.9589C11.2433 29.9589 13.8654 29.0231 15.9575 27.4394C13.2796 27.3854 11.0294 25.6847 10.2577 23.3451C11.1968 23.4801 12.0429 23.4801 13.0099 23.2372C10.2205 22.6883 8.12837 20.3127 8.12837 17.4423V17.3703C8.93732 17.8112 9.88574 18.0812 10.8806 18.1172C10.0442 17.5787 9.35851 16.8483 8.88476 15.991C8.411 15.1337 8.16392 14.1763 8.16557 13.2041C8.16557 12.1063 8.46311 11.0985 8.99311 10.2257C11.9964 13.807 16.5061 16.1465 21.5643 16.3985C20.6996 12.3943 23.7959 9.14587 27.5152 9.14587C29.2725 9.14587 30.8532 9.85674 31.969 11.0085C33.3451 10.7566 34.6655 10.2617 35.8371 9.58679C35.3814 10.9545 34.4237 12.1063 33.1592 12.8352C34.3865 12.7092 35.5767 12.3763 36.6739 11.9173C35.8463 13.0961 34.805 14.1399 33.6148 14.9768Z" fill="white"/>
</svg>
